<svg xmlns="http://www.w3.org/2000/svg" width="760" height="460" viewBox="0 0 760 460">
<rect width="760" height="460" fill="white"/>
<text x="380" y="22" text-anchor="middle" font-family="sans-serif" font-size="15">Sedov blast at t = 0.05 — radial density (one IC, every engine)</text>
<line x1="55" y1="405" x2="705" y2="405" stroke="black"/>
<line x1="55" y1="55" x2="55" y2="405" stroke="black"/>
<text x="380" y="446" text-anchor="middle" font-family="sans-serif" font-size="12">r</text>
<polyline points="74.99,402.96 82.99,403.04 98.98,403.11 106.97,403.16 114.97,403.21 122.97,403.28 130.96,403.32 138.96,403.37 146.95,403.47 154.95,403.53 162.95,403.57 170.94,403.59 178.94,403.6 186.93,403.6 194.93,403.6 202.93,403.59 210.92,403.55 218.92,403.47 226.91,403.37 234.91,403.13 242.91,402.88 250.9,402.39 258.9,401.88 266.89,401.53 274.89,400.6 282.89,399.78 290.88,398.86 298.88,397.22 306.87,395.53 314.87,392.94 322.87,390.93 330.86,387.16 338.86,381.9 346.85,376.65 354.85,367.39 362.84,358.14 370.84,342.85 378.84,326.47 386.83,300.17 394.83,240.89 402.82,178.11 410.82,116.63 418.82,104.6 426.81,137.07 434.81,216.18 442.8,265.79 450.8,293.17 458.8,300.69 466.79,303.82 474.79,304.06 482.78,304.18 490.78,304.2 498.78,304.2 506.77,304.2 514.77,304.2 522.76,304.2 530.76,304.2 538.76,304.2 546.75,304.2 554.75,304.2 562.74,304.2 570.74,304.2 578.74,304.2 586.73,304.2 594.73,304.2 602.72,304.2 610.72,304.2 618.72,304.2 626.71,304.2 634.71,304.2 642.7,304.2 650.7,304.2 658.7,304.2 666.69,304.2 674.69,304.2 682.68,304.2 690.68,304.2 698.68,304.2" fill="none" stroke="#d62728" stroke-width="1.6"/>
<rect x="475" y="58" width="12" height="3" fill="#d62728"/>
<text x="495" y="68" font-family="sans-serif" font-size="12">enzo-ppm (R=0.308)</text>
<polyline points="74.99,403.76 82.99,403.76 98.98,403.76 106.97,403.76 114.97,403.76 122.97,403.76 130.96,403.76 138.96,403.76 146.95,403.75 154.95,403.74 162.95,403.72 170.94,403.7 178.94,403.65 186.93,403.6 194.93,403.5 202.93,403.39 210.92,403.16 218.92,402.94 226.91,402.67 234.91,402.28 242.91,401.73 250.9,401.11 258.9,400.42 266.89,399.4 274.89,398.25 282.89,396.64 290.88,395.3 298.88,393.19 306.87,390.8 314.87,387.35 322.87,384.42 330.86,379.56 338.86,373.33 346.85,367.71 354.85,358.6 362.84,349.29 370.84,333.39 378.84,315.5 386.83,291.51 394.83,246.85 402.82,206.15 410.82,159.09 418.82,147.94 426.81,154.53 434.81,201.78 442.8,247.77 450.8,279.92 458.8,293.69 466.79,302.14 474.79,303.18 482.78,304.03 490.78,304.15 498.78,304.19 506.77,304.2 514.77,304.2 522.76,304.2 530.76,304.2 538.76,304.2 546.75,304.2 554.75,304.2 562.74,304.2 570.74,304.2 578.74,304.2 586.73,304.2 594.73,304.2 602.72,304.2 610.72,304.2 618.72,304.2 626.71,304.2 634.71,304.2 642.7,304.2 650.7,304.2 658.7,304.2 666.69,304.2 674.69,304.2 682.68,304.2 690.68,304.2 698.68,304.2" fill="none" stroke="#1f77b4" stroke-width="1.6"/>
<rect x="475" y="76" width="12" height="3" fill="#1f77b4"/>
<text x="495" y="86" font-family="sans-serif" font-size="12">ramses-muscl (R=0.308)</text>
<polyline points="74.99,403.64 82.99,403.63 98.98,403.61 106.97,403.58 114.97,402.87 122.97,403.26 130.96,402.61 138.96,402.82 146.95,402.91 154.95,402.27 162.95,402.88 170.94,402.4 178.94,402.81 186.93,402.55 194.93,402.93 202.93,402.52 210.92,402.5 218.92,402.35 226.91,401.99 234.91,401.84 242.91,401.13 250.9,401.42 258.9,401.28 266.89,400.95 274.89,400.77 282.89,399.93 290.88,400.27 298.88,399.49 306.87,398.49 314.87,396.62 322.87,396.93 330.86,393.05 338.86,389.98 346.85,385.35 354.85,377.81 362.84,364.58 370.84,335.89 378.84,293.5 386.83,226.4 394.83,159.63 402.82,98.64 410.82,86.82 418.82,145.61 426.81,212.52 434.81,272.33 442.8,297.86 450.8,303.4 458.8,304.1 466.79,304.19 474.79,304.2 482.78,304.2 490.78,304.2 498.78,304.2 506.77,304.2 514.77,304.2 522.76,304.2 530.76,304.2 538.76,304.2 546.75,304.2 554.75,304.2 562.74,304.2 570.74,304.2 578.74,304.2 586.73,304.2 594.73,304.2 602.72,304.2 610.72,304.2 618.72,304.2 626.71,304.2 634.71,304.2 642.7,304.2 650.7,304.2 658.7,304.2 666.69,304.2 674.69,304.2 682.68,304.2 690.68,304.2 698.68,304.2" fill="none" stroke="#2ca02c" stroke-width="1.6"/>
<rect x="475" y="94" width="12" height="3" fill="#2ca02c"/>
<text x="495" y="104" font-family="sans-serif" font-size="12">guest-cpu (R=0.301)</text>
<polyline points="74.99,403.64 82.99,403.63 98.98,403.61 106.97,403.58 114.97,402.87 122.97,403.26 130.96,402.61 138.96,402.82 146.95,402.91 154.95,402.27 162.95,402.88 170.94,402.4 178.94,402.81 186.93,402.55 194.93,402.93 202.93,402.52 210.92,402.5 218.92,402.35 226.91,401.99 234.91,401.84 242.91,401.13 250.9,401.42 258.9,401.28 266.89,400.95 274.89,400.77 282.89,399.93 290.88,400.27 298.88,399.49 306.87,398.49 314.87,396.62 322.87,396.93 330.86,393.05 338.86,389.98 346.85,385.35 354.85,377.81 362.84,364.58 370.84,335.89 378.84,293.5 386.83,226.4 394.83,159.63 402.82,98.64 410.82,86.82 418.82,145.61 426.81,212.52 434.81,272.33 442.8,297.86 450.8,303.4 458.8,304.1 466.79,304.19 474.79,304.2 482.78,304.2 490.78,304.2 498.78,304.2 506.77,304.2 514.77,304.2 522.76,304.2 530.76,304.2 538.76,304.2 546.75,304.2 554.75,304.2 562.74,304.2 570.74,304.2 578.74,304.2 586.73,304.2 594.73,304.2 602.72,304.2 610.72,304.2 618.72,304.2 626.71,304.2 634.71,304.2 642.7,304.2 650.7,304.2 658.7,304.2 666.69,304.2 674.69,304.2 682.68,304.2 690.68,304.2 698.68,304.2" fill="none" stroke="#9467bd" stroke-width="1.6"/>
<rect x="475" y="112" width="12" height="3" fill="#9467bd"/>
<text x="495" y="122" font-family="sans-serif" font-size="12">guest-metal (R=0.301)</text>
<line x1="465.65587058358096" y1="55" x2="465.65587058358096" y2="405" stroke="black" stroke-dasharray="6,3"/>
<text x="469.65587058358096" y="69" font-family="sans-serif" font-size="11">analytic R(t)</text>
</svg>
