<svg xmlns="http://www.w3.org/2000/svg" width="760" height="460" viewBox="0 0 760 460">
<rect width="760" height="460" fill="white"/>
<text x="380" y="22" text-anchor="middle" font-family="sans-serif" font-size="15">Sedov blast at t = 0.05 — radial density (one IC, every engine)</text>
<line x1="55" y1="405" x2="705" y2="405" stroke="black"/>
<line x1="55" y1="55" x2="55" y2="405" stroke="black"/>
<text x="380" y="446" text-anchor="middle" font-family="sans-serif" font-size="12">r</text>
<polyline points="74.99,402.97 82.99,403.05 98.98,403.12 106.97,403.17 114.97,403.22 122.97,403.28 130.96,403.32 138.96,403.37 146.95,403.47 154.95,403.53 162.95,403.57 170.94,403.59 178.94,403.61 186.93,403.6 194.93,403.6 202.93,403.59 210.92,403.55 218.92,403.47 226.91,403.38 234.91,403.14 242.91,402.89 250.9,402.39 258.9,401.89 266.89,401.53 274.89,400.6 282.89,399.79 290.88,398.87 298.88,397.24 306.87,395.55 314.87,392.96 322.87,390.95 330.86,387.2 338.86,381.95 346.85,376.71 354.85,367.47 362.84,358.23 370.84,342.98 378.84,326.63 386.83,300.38 394.83,241.23 402.82,178.57 410.82,117.21 418.82,105.21 426.81,137.61 434.81,216.56 442.8,266.07 450.8,293.4 458.8,300.9 466.79,304.02 474.79,304.26 482.78,304.39 490.78,304.4 498.78,304.4 506.77,304.4 514.77,304.4 522.76,304.4 530.76,304.4 538.76,304.4 546.75,304.4 554.75,304.4 562.74,304.4 570.74,304.4 578.74,304.4 586.73,304.4 594.73,304.4 602.72,304.4 610.72,304.4 618.72,304.4 626.71,304.4 634.71,304.4 642.7,304.4 650.7,304.4 658.7,304.4 666.69,304.4 674.69,304.4 682.68,304.4 690.68,304.4 698.68,304.4" fill="none" stroke="#d62728" stroke-width="1.6"/>
<rect x="475" y="58" width="12" height="3" fill="#d62728"/>
<text x="495" y="68" font-family="sans-serif" font-size="12">enzo-ppm (R=0.308)</text>
<polyline points="74.99,403.76 82.99,403.76 98.98,403.76 106.97,403.76 114.97,403.76 122.97,403.76 130.96,403.76 138.96,403.76 146.95,403.75 154.95,403.74 162.95,403.73 170.94,403.71 178.94,403.65 186.93,403.6 194.93,403.5 202.93,403.39 210.92,403.17 218.92,402.94 226.91,402.68 234.91,402.28 242.91,401.73 250.9,401.12 258.9,400.43 266.89,399.41 274.89,398.26 282.89,396.65 290.88,395.32 298.88,393.21 306.87,390.83 314.87,387.38 322.87,384.46 330.86,379.61 338.86,373.39 346.85,367.78 354.85,358.7 362.84,349.41 370.84,333.54 378.84,315.68 386.83,291.74 394.83,247.17 402.82,206.55 410.82,159.59 418.82,148.47 426.81,155.04 434.81,202.19 442.8,248.09 450.8,280.18 458.8,293.92 466.79,302.35 474.79,303.38 482.78,304.23 490.78,304.35 498.78,304.4 506.77,304.4 514.77,304.4 522.76,304.4 530.76,304.4 538.76,304.4 546.75,304.4 554.75,304.4 562.74,304.4 570.74,304.4 578.74,304.4 586.73,304.4 594.73,304.4 602.72,304.4 610.72,304.4 618.72,304.4 626.71,304.4 634.71,304.4 642.7,304.4 650.7,304.4 658.7,304.4 666.69,304.4 674.69,304.4 682.68,304.4 690.68,304.4 698.68,304.4" fill="none" stroke="#1f77b4" stroke-width="1.6"/>
<rect x="475" y="76" width="12" height="3" fill="#1f77b4"/>
<text x="495" y="86" font-family="sans-serif" font-size="12">ramses-muscl (R=0.308)</text>
<polyline points="74.99,403.65 82.99,403.64 98.98,403.61 106.97,403.58 114.97,402.88 122.97,403.26 130.96,402.61 138.96,402.83 146.95,402.91 154.95,402.28 162.95,402.88 170.94,402.4 178.94,402.82 186.93,402.55 194.93,402.94 202.93,402.53 210.92,402.5 218.92,402.35 226.91,402.0 234.91,401.85 242.91,401.14 250.9,401.43 258.9,401.29 266.89,400.96 274.89,400.78 282.89,399.95 290.88,400.28 298.88,399.5 306.87,398.5 314.87,396.64 322.87,396.94 330.86,393.07 338.86,390.01 346.85,385.39 354.85,377.87 362.84,364.66 370.84,336.03 378.84,293.73 386.83,226.76 394.83,160.13 402.82,99.26 410.82,87.46 418.82,146.13 426.81,212.91 434.81,272.6 442.8,298.08 450.8,303.6 458.8,304.3 466.79,304.4 474.79,304.4 482.78,304.4 490.78,304.4 498.78,304.4 506.77,304.4 514.77,304.4 522.76,304.4 530.76,304.4 538.76,304.4 546.75,304.4 554.75,304.4 562.74,304.4 570.74,304.4 578.74,304.4 586.73,304.4 594.73,304.4 602.72,304.4 610.72,304.4 618.72,304.4 626.71,304.4 634.71,304.4 642.7,304.4 650.7,304.4 658.7,304.4 666.69,304.4 674.69,304.4 682.68,304.4 690.68,304.4 698.68,304.4" fill="none" stroke="#2ca02c" stroke-width="1.6"/>
<rect x="475" y="94" width="12" height="3" fill="#2ca02c"/>
<text x="495" y="104" font-family="sans-serif" font-size="12">guest-cpu (R=0.301)</text>
<polyline points="74.99,403.64 82.99,403.64 98.98,403.61 106.97,403.55 114.97,402.82 122.97,403.24 130.96,402.66 138.96,402.82 146.95,402.93 154.95,402.37 162.95,402.89 170.94,402.45 178.94,402.79 186.93,402.57 194.93,402.93 202.93,402.55 210.92,402.5 218.92,402.34 226.91,402.04 234.91,401.86 242.91,401.2 250.9,401.44 258.9,401.31 266.89,400.99 274.89,400.82 282.89,400.0 290.88,400.36 298.88,399.57 306.87,398.62 314.87,396.82 322.87,397.11 330.86,393.28 338.86,390.26 346.85,385.59 354.85,378.11 362.84,364.78 370.84,336.28 378.84,294.34 386.83,227.65 394.83,161.04 402.82,98.88 410.82,86.82 418.82,144.27 426.81,212.06 434.81,272.81 442.8,298.21 450.8,303.62 458.8,304.31 466.79,304.4 474.79,304.4 482.78,304.4 490.78,304.4 498.78,304.4 506.77,304.4 514.77,304.4 522.76,304.4 530.76,304.4 538.76,304.4 546.75,304.4 554.75,304.4 562.74,304.4 570.74,304.4 578.74,304.4 586.73,304.4 594.73,304.4 602.72,304.4 610.72,304.4 618.72,304.4 626.71,304.4 634.71,304.4 642.7,304.4 650.7,304.4 658.7,304.4 666.69,304.4 674.69,304.4 682.68,304.4 690.68,304.4 698.68,304.4" fill="none" stroke="#9467bd" stroke-width="1.6"/>
<rect x="475" y="112" width="12" height="3" fill="#9467bd"/>
<text x="495" y="122" font-family="sans-serif" font-size="12">guest-cpu-resident (R=0.301)</text>
<polyline points="74.99,403.65 82.99,403.64 98.98,403.61 106.97,403.58 114.97,402.88 122.97,403.26 130.96,402.61 138.96,402.83 146.95,402.91 154.95,402.28 162.95,402.88 170.94,402.4 178.94,402.82 186.93,402.55 194.93,402.94 202.93,402.53 210.92,402.5 218.92,402.35 226.91,402.0 234.91,401.85 242.91,401.14 250.9,401.43 258.9,401.29 266.89,400.96 274.89,400.78 282.89,399.95 290.88,400.28 298.88,399.5 306.87,398.5 314.87,396.64 322.87,396.94 330.86,393.07 338.86,390.01 346.85,385.39 354.85,377.87 362.84,364.66 370.84,336.03 378.84,293.73 386.83,226.76 394.83,160.13 402.82,99.26 410.82,87.46 418.82,146.13 426.81,212.91 434.81,272.6 442.8,298.08 450.8,303.6 458.8,304.3 466.79,304.4 474.79,304.4 482.78,304.4 490.78,304.4 498.78,304.4 506.77,304.4 514.77,304.4 522.76,304.4 530.76,304.4 538.76,304.4 546.75,304.4 554.75,304.4 562.74,304.4 570.74,304.4 578.74,304.4 586.73,304.4 594.73,304.4 602.72,304.4 610.72,304.4 618.72,304.4 626.71,304.4 634.71,304.4 642.7,304.4 650.7,304.4 658.7,304.4 666.69,304.4 674.69,304.4 682.68,304.4 690.68,304.4 698.68,304.4" fill="none" stroke="#d62728" stroke-width="1.6"/>
<rect x="475" y="130" width="12" height="3" fill="#d62728"/>
<text x="495" y="140" font-family="sans-serif" font-size="12">guest-metal (R=0.301)</text>
<polyline points="74.99,403.64 82.99,403.64 98.98,403.61 106.97,403.55 114.97,402.82 122.97,403.24 130.96,402.66 138.96,402.82 146.95,402.93 154.95,402.37 162.95,402.89 170.94,402.45 178.94,402.79 186.93,402.57 194.93,402.93 202.93,402.55 210.92,402.5 218.92,402.34 226.91,402.04 234.91,401.86 242.91,401.2 250.9,401.44 258.9,401.31 266.89,400.99 274.89,400.82 282.89,400.0 290.88,400.36 298.88,399.57 306.87,398.62 314.87,396.82 322.87,397.11 330.86,393.28 338.86,390.26 346.85,385.59 354.85,378.11 362.84,364.78 370.84,336.28 378.84,294.34 386.83,227.65 394.83,161.04 402.82,98.88 410.82,86.82 418.82,144.27 426.81,212.06 434.81,272.81 442.8,298.21 450.8,303.62 458.8,304.31 466.79,304.4 474.79,304.4 482.78,304.4 490.78,304.4 498.78,304.4 506.77,304.4 514.77,304.4 522.76,304.4 530.76,304.4 538.76,304.4 546.75,304.4 554.75,304.4 562.74,304.4 570.74,304.4 578.74,304.4 586.73,304.4 594.73,304.4 602.72,304.4 610.72,304.4 618.72,304.4 626.71,304.4 634.71,304.4 642.7,304.4 650.7,304.4 658.7,304.4 666.69,304.4 674.69,304.4 682.68,304.4 690.68,304.4 698.68,304.4" fill="none" stroke="#1f77b4" stroke-width="1.6"/>
<rect x="475" y="148" width="12" height="3" fill="#1f77b4"/>
<text x="495" y="158" font-family="sans-serif" font-size="12">guest-metal-resident (R=0.301)</text>
<line x1="465.65587058358096" y1="55" x2="465.65587058358096" y2="405" stroke="black" stroke-dasharray="6,3"/>
<text x="469.65587058358096" y="69" font-family="sans-serif" font-size="11">analytic R(t)</text>
</svg>
