<svg xmlns="http://www.w3.org/2000/svg" width="760" height="460" viewBox="0 0 760 460">
<rect width="760" height="460" fill="white"/>
<text x="380" y="22" text-anchor="middle" font-family="sans-serif" font-size="15">
  Sod shock tube at t̂ = 0.1 — density (one spec, every code, exact overlay)</text>
<line x1="55" y1="405" x2="705" y2="405" stroke="black"/>
<line x1="55" y1="55" x2="55" y2="405" stroke="black"/>
<text x="380" y="446" text-anchor="middle" font-family="sans-serif" font-size="12">x̂</text>
<text x="16" y="230" font-family="sans-serif" font-size="12" transform="rotate(-90 16 230)">ρ</text>
<line x1="55.0" y1="405" x2="55.0" y2="410" stroke="black"/>
<text x="55.0" y="423" text-anchor="middle" font-family="sans-serif" font-size="11">0.0</text>
<line x1="217.5" y1="405" x2="217.5" y2="410" stroke="black"/>
<text x="217.5" y="423" text-anchor="middle" font-family="sans-serif" font-size="11">0.25</text>
<line x1="380.0" y1="405" x2="380.0" y2="410" stroke="black"/>
<text x="380.0" y="423" text-anchor="middle" font-family="sans-serif" font-size="11">0.5</text>
<line x1="542.5" y1="405" x2="542.5" y2="410" stroke="black"/>
<text x="542.5" y="423" text-anchor="middle" font-family="sans-serif" font-size="11">0.75</text>
<line x1="705.0" y1="405" x2="705.0" y2="410" stroke="black"/>
<text x="705.0" y="423" text-anchor="middle" font-family="sans-serif" font-size="11">1.0</text>
<line x1="50" y1="405.0" x2="55" y2="405.0" stroke="black"/>
<text x="46" y="409.0" text-anchor="end" font-family="sans-serif" font-size="11">0.0</text>
<line x1="50" y1="325.45454545454544" x2="55" y2="325.45454545454544" stroke="black"/>
<text x="46" y="329.45454545454544" text-anchor="end" font-family="sans-serif" font-size="11">0.25</text>
<line x1="50" y1="245.9090909090909" x2="55" y2="245.9090909090909" stroke="black"/>
<text x="46" y="249.9090909090909" text-anchor="end" font-family="sans-serif" font-size="11">0.5</text>
<line x1="50" y1="166.36363636363637" x2="55" y2="166.36363636363637" stroke="black"/>
<text x="46" y="170.36363636363637" text-anchor="end" font-family="sans-serif" font-size="11">0.75</text>
<line x1="50" y1="86.81818181818181" x2="55" y2="86.81818181818181" stroke="black"/>
<text x="46" y="90.81818181818181" text-anchor="end" font-family="sans-serif" font-size="11">1.0</text>
<polyline points="55.65,86.82 56.73,86.82 57.82,86.82 58.9,86.82 59.98,86.82 61.06,86.82 62.15,86.82 63.23,86.82 64.31,86.82 65.4,86.82 66.48,86.82 67.56,86.82 68.65,86.82 69.73,86.82 70.81,86.82 71.89,86.82 72.98,86.82 74.06,86.82 75.14,86.82 76.23,86.82 77.31,86.82 78.39,86.82 79.48,86.82 80.56,86.82 81.64,86.82 82.72,86.82 83.81,86.82 84.89,86.82 85.97,86.82 87.06,86.82 88.14,86.82 89.22,86.82 90.31,86.82 91.39,86.82 92.47,86.82 93.55,86.82 94.64,86.82 95.72,86.82 96.8,86.82 97.89,86.82 98.97,86.82 100.05,86.82 101.13,86.82 102.22,86.82 103.3,86.82 104.38,86.82 105.47,86.82 106.55,86.82 107.63,86.82 108.72,86.82 109.8,86.82 110.88,86.82 111.96,86.82 113.05,86.82 114.13,86.82 115.21,86.82 116.3,86.82 117.38,86.82 118.46,86.82 119.55,86.82 120.63,86.82 121.71,86.82 122.79,86.82 123.88,86.82 124.96,86.82 126.04,86.82 127.13,86.82 128.21,86.82 129.29,86.82 130.38,86.82 131.46,86.82 132.54,86.82 133.62,86.82 134.71,86.82 135.79,86.82 136.87,86.82 137.96,86.82 139.04,86.82 140.12,86.82 141.2,86.82 142.29,86.82 143.37,86.82 144.45,86.82 145.54,86.82 146.62,86.82 147.7,86.82 148.79,86.82 149.87,86.82 150.95,86.82 152.03,86.82 153.12,86.82 154.2,86.82 155.28,86.82 156.37,86.82 157.45,86.82 158.53,86.82 159.62,86.82 160.7,86.82 161.78,86.82 162.86,86.82 163.95,86.82 165.03,86.82 166.11,86.82 167.2,86.82 168.28,86.82 169.36,86.82 170.44,86.82 171.53,86.82 172.61,86.82 173.69,86.82 174.78,86.82 175.86,86.82 176.94,86.82 178.03,86.82 179.11,86.82 180.19,86.82 181.27,86.82 182.36,86.82 183.44,86.82 184.52,86.82 185.61,86.82 186.69,86.82 187.77,86.82 188.86,86.82 189.94,86.82 191.02,86.82 192.1,86.82 193.19,86.82 194.27,86.82 195.35,86.82 196.44,86.82 197.52,86.82 198.6,86.82 199.69,86.82 200.77,86.82 201.85,86.82 202.93,86.82 204.02,86.82 205.1,86.82 206.18,86.82 207.27,86.82 208.35,86.82 209.43,86.82 210.51,86.82 211.6,86.82 212.68,86.82 213.76,86.82 214.85,86.82 215.93,86.82 217.01,86.82 218.1,86.82 219.18,86.82 220.26,86.82 221.34,86.82 222.43,86.82 223.51,86.82 224.59,86.82 225.68,86.82 226.76,86.82 227.84,86.82 228.93,86.82 230.01,86.82 231.09,86.82 232.17,86.82 233.26,86.82 234.34,86.82 235.42,86.82 236.51,86.82 237.59,86.82 238.67,86.82 239.76,86.82 240.84,86.82 241.92,86.82 243.0,86.82 244.09,86.82 245.17,86.82 246.25,86.82 247.34,86.82 248.42,86.82 249.5,86.82 250.58,86.82 251.67,86.82 252.75,86.82 253.83,86.82 254.92,86.82 256.0,86.82 257.08,86.82 258.17,86.82 259.25,86.82 260.33,86.82 261.41,86.82 262.5,86.82 263.58,86.82 264.66,86.82 265.75,86.82 266.83,86.82 267.91,86.82 269.0,86.82 270.08,86.82 271.16,86.82 272.24,86.82 273.33,86.82 274.41,86.82 275.49,86.82 276.58,86.82 277.66,86.82 278.74,86.82 279.83,86.82 280.91,86.82 281.99,86.82 283.07,86.82 284.16,86.82 285.24,86.82 286.32,86.82 287.41,86.82 288.49,86.82 289.57,86.82 290.65,86.82 291.74,86.82 292.82,86.82 293.9,86.82 294.99,86.82 296.07,86.82 297.15,86.82 298.24,86.82 299.32,86.82 300.4,86.82 301.48,86.82 302.57,86.82 303.65,88.74 304.73,92.44 305.82,96.1 306.9,99.73 307.98,103.33 309.07,106.89 310.15,110.42 311.23,113.91 312.31,117.37 313.4,120.8 314.48,124.19 315.56,127.56 316.65,130.88 317.73,134.18 318.81,137.45 319.9,140.68 320.98,143.89 322.06,147.06 323.14,150.2 324.23,153.31 325.31,156.39 326.39,159.44 327.48,162.46 328.56,165.45 329.64,168.41 330.72,171.34 331.81,174.24 332.89,177.12 333.97,179.96 335.06,182.78 336.14,185.56 337.22,188.32 338.31,191.06 339.39,193.76 340.47,196.44 341.55,199.09 342.64,201.71 343.72,204.3 344.8,206.87 345.89,209.42 346.97,211.93 348.05,214.42 349.14,216.89 350.22,219.33 351.3,221.74 352.38,224.13 353.47,226.49 354.55,228.83 355.63,231.15 356.72,233.44 357.8,235.7 358.88,237.94 359.97,240.16 361.05,242.36 362.13,244.53 363.21,246.68 364.3,248.8 365.38,250.9 366.46,252.98 367.55,255.04 368.63,257.07 369.71,259.08 370.79,261.07 371.88,263.04 372.96,264.99 374.04,266.92 375.13,268.82 376.21,269.35 377.29,269.35 378.38,269.35 379.46,269.35 380.54,269.35 381.62,269.35 382.71,269.35 383.79,269.35 384.87,269.35 385.96,269.35 387.04,269.35 388.12,269.35 389.21,269.35 390.29,269.35 391.37,269.35 392.45,269.35 393.54,269.35 394.62,269.35 395.7,269.35 396.79,269.35 397.87,269.35 398.95,269.35 400.03,269.35 401.12,269.35 402.2,269.35 403.28,269.35 404.37,269.35 405.45,269.35 406.53,269.35 407.62,269.35 408.7,269.35 409.78,269.35 410.86,269.35 411.95,269.35 413.03,269.35 414.11,269.35 415.2,269.35 416.28,269.35 417.36,269.35 418.45,269.35 419.53,269.35 420.61,269.35 421.69,269.35 422.78,269.35 423.86,269.35 424.94,269.35 426.03,269.35 427.11,269.35 428.19,269.35 429.28,269.35 430.36,269.35 431.44,269.35 432.52,269.35 433.61,269.35 434.69,269.35 435.77,269.35 436.86,269.35 437.94,269.35 439.02,269.35 440.1,269.35 441.19,320.5 442.27,320.5 443.35,320.5 444.44,320.5 445.52,320.5 446.6,320.5 447.69,320.5 448.77,320.5 449.85,320.5 450.93,320.5 452.02,320.5 453.1,320.5 454.18,320.5 455.27,320.5 456.35,320.5 457.43,320.5 458.52,320.5 459.6,320.5 460.68,320.5 461.76,320.5 462.85,320.5 463.93,320.5 465.01,320.5 466.1,320.5 467.18,320.5 468.26,320.5 469.35,320.5 470.43,320.5 471.51,320.5 472.59,320.5 473.68,320.5 474.76,320.5 475.84,320.5 476.93,320.5 478.01,320.5 479.09,320.5 480.17,320.5 481.26,320.5 482.34,320.5 483.42,320.5 484.51,320.5 485.59,320.5 486.67,320.5 487.76,320.5 488.84,320.5 489.92,320.5 491.0,320.5 492.09,320.5 493.17,320.5 494.25,365.23 495.34,365.23 496.42,365.23 497.5,365.23 498.59,365.23 499.67,365.23 500.75,365.23 501.83,365.23 502.92,365.23 504.0,365.23 505.08,365.23 506.17,365.23 507.25,365.23 508.33,365.23 509.42,365.23 510.5,365.23 511.58,365.23 512.66,365.23 513.75,365.23 514.83,365.23 515.91,365.23 517.0,365.23 518.08,365.23 519.16,365.23 520.24,365.23 521.33,365.23 522.41,365.23 523.49,365.23 524.58,365.23 525.66,365.23 526.74,365.23 527.83,365.23 528.91,365.23 529.99,365.23 531.07,365.23 532.16,365.23 533.24,365.23 534.32,365.23 535.41,365.23 536.49,365.23 537.57,365.23 538.66,365.23 539.74,365.23 540.82,365.23 541.9,365.23 542.99,365.23 544.07,365.23 545.15,365.23 546.24,365.23 547.32,365.23 548.4,365.23 549.49,365.23 550.57,365.23 551.65,365.23 552.73,365.23 553.82,365.23 554.9,365.23 555.98,365.23 557.07,365.23 558.15,365.23 559.23,365.23 560.31,365.23 561.4,365.23 562.48,365.23 563.56,365.23 564.65,365.23 565.73,365.23 566.81,365.23 567.9,365.23 568.98,365.23 570.06,365.23 571.14,365.23 572.23,365.23 573.31,365.23 574.39,365.23 575.48,365.23 576.56,365.23 577.64,365.23 578.73,365.23 579.81,365.23 580.89,365.23 581.97,365.23 583.06,365.23 584.14,365.23 585.22,365.23 586.31,365.23 587.39,365.23 588.47,365.23 589.56,365.23 590.64,365.23 591.72,365.23 592.8,365.23 593.89,365.23 594.97,365.23 596.05,365.23 597.14,365.23 598.22,365.23 599.3,365.23 600.38,365.23 601.47,365.23 602.55,365.23 603.63,365.23 604.72,365.23 605.8,365.23 606.88,365.23 607.97,365.23 609.05,365.23 610.13,365.23 611.21,365.23 612.3,365.23 613.38,365.23 614.46,365.23 615.55,365.23 616.63,365.23 617.71,365.23 618.8,365.23 619.88,365.23 620.96,365.23 622.04,365.23 623.13,365.23 624.21,365.23 625.29,365.23 626.38,365.23 627.46,365.23 628.54,365.23 629.62,365.23 630.71,365.23 631.79,365.23 632.87,365.23 633.96,365.23 635.04,365.23 636.12,365.23 637.21,365.23 638.29,365.23 639.37,365.23 640.45,365.23 641.54,365.23 642.62,365.23 643.7,365.23 644.79,365.23 645.87,365.23 646.95,365.23 648.04,365.23 649.12,365.23 650.2,365.23 651.28,365.23 652.37,365.23 653.45,365.23 654.53,365.23 655.62,365.23 656.7,365.23 657.78,365.23 658.87,365.23 659.95,365.23 661.03,365.23 662.11,365.23 663.2,365.23 664.28,365.23 665.36,365.23 666.45,365.23 667.53,365.23 668.61,365.23 669.69,365.23 670.78,365.23 671.86,365.23 672.94,365.23 674.03,365.23 675.11,365.23 676.19,365.23 677.28,365.23 678.36,365.23 679.44,365.23 680.52,365.23 681.61,365.23 682.69,365.23 683.77,365.23 684.86,365.23 685.94,365.23 687.02,365.23 688.11,365.23 689.19,365.23 690.27,365.23 691.35,365.23 692.44,365.23 693.52,365.23 694.6,365.23 695.69,365.23 696.77,365.23 697.85,365.23 698.94,365.23 700.02,365.23 701.1,365.23 702.18,365.23 703.27,365.23 704.35,365.23" fill="none" stroke="black" stroke-width="2.2" stroke-dasharray="6,3"/>
<text x="555" y="50" font-family="sans-serif" font-size="12">exact (dashed)</text>
<polyline points="58.25,86.82 64.75,86.82 71.25,86.82 77.75,86.82 84.25,86.82 90.75,86.82 97.25,86.82 103.75,86.82 110.25,86.82 116.75,86.82 123.25,86.82 129.75,86.82 136.25,86.82 142.75,86.82 149.25,86.82 155.75,86.82 162.25,86.82 168.75,86.82 175.25,86.82 181.75,86.82 188.25,86.82 194.75,86.82 201.25,86.82 207.75,86.82 214.25,86.82 220.75,86.82 227.25,86.82 233.75,86.82 240.25,86.82 246.75,86.82 253.25,86.82 259.75,86.82 266.25,86.82 272.75,86.82 279.25,86.82 285.75,86.84 292.25,87.13 298.75,89.68 305.25,98.49 311.75,113.8 318.25,132.49 324.75,151.91 331.25,170.81 337.75,188.9 344.25,205.46 350.75,221.17 357.25,235.59 363.75,247.91 370.25,257.68 376.75,267.21 383.25,271.69 389.75,271.12 396.25,268.45 402.75,268.76 409.25,269.77 415.75,270.36 422.25,270.17 428.75,270.61 435.25,276.86 441.75,298.12 448.25,317.88 454.75,322.75 461.25,322.86 467.75,322.01 474.25,320.92 480.75,319.94 487.25,320.76 493.75,339.39 500.25,364.11 506.75,365.23 513.25,365.23 519.75,365.23 526.25,365.23 532.75,365.23 539.25,365.23 545.75,365.23 552.25,365.23 558.75,365.23 565.25,365.23 571.75,365.23 578.25,365.23 584.75,365.23 591.25,365.23 597.75,365.23 604.25,365.23 610.75,365.23 617.25,365.23 623.75,365.23 630.25,365.23 636.75,365.23 643.25,365.23 649.75,365.23 656.25,365.23 662.75,365.23 669.25,365.23 675.75,365.23 682.25,365.23 688.75,365.23 695.25,365.23 701.75,365.23" fill="none" stroke="#d62728" stroke-width="1.6"/>
<rect x="535" y="58" width="12" height="3" fill="#d62728"/>
<text x="555" y="68" font-family="sans-serif" font-size="12">enzo (100 pts, L1ρ=0.00294)</text>
<polyline points="60.08,86.82 70.23,86.82 80.39,86.82 90.55,86.82 100.7,86.82 110.86,86.82 121.02,86.82 131.17,86.82 141.33,86.82 151.48,86.82 161.64,86.82 171.8,86.82 181.95,86.82 192.11,86.82 202.27,86.82 212.42,86.82 222.58,86.82 232.73,86.83 242.89,86.85 253.05,86.97 263.2,87.36 273.36,88.53 283.52,91.5 293.67,97.8 303.83,109.03 313.98,125.96 324.14,148.06 334.3,173.63 344.45,198.31 354.61,219.96 364.77,237.42 374.92,254.84 385.08,266.36 395.23,268.08 405.39,268.63 415.55,272.48 425.7,281.02 435.86,294.09 446.02,308.56 456.17,317.19 466.33,321.37 476.48,323.73 486.64,328.62 496.8,345.86 506.95,361.65 517.11,364.81 527.27,365.19 537.42,365.22 547.58,365.23 557.73,365.23 567.89,365.23 578.05,365.23 588.2,365.23 598.36,365.23 608.52,365.23 618.67,365.23 628.83,365.23 638.98,365.23 649.14,365.23 659.3,365.23 669.45,365.23 679.61,365.23 689.77,365.23 699.92,365.23" fill="none" stroke="#1f77b4" stroke-width="1.6"/>
<rect x="535" y="76" width="12" height="3" fill="#1f77b4"/>
<text x="555" y="86" font-family="sans-serif" font-size="12">ramses (64 pts, L1ρ=0.0094)</text>
<polyline points="148.95,86.82 154.02,86.82 159.1,86.82 164.18,86.82 169.26,86.82 174.34,86.82 179.41,86.82 184.49,86.82 189.57,86.82 194.65,86.82 199.73,86.82 204.8,86.82 209.88,86.82 214.96,86.82 220.04,86.82 225.12,86.82 230.2,86.82 235.27,86.82 240.35,86.82 245.43,86.82 250.51,86.82 255.59,86.83 260.66,86.84 265.74,86.88 270.82,86.99 275.91,87.26 281.0,87.88 286.1,89.15 291.24,91.55 296.43,95.69 301.71,102.17 307.13,111.41 312.76,123.6 318.67,138.75 324.96,156.28 331.7,174.11 338.98,191.63 346.86,208.76 355.41,225.09 364.7,239.94 374.74,252.41 385.46,261.65 396.72,267.34 408.3,270.41 420.0,272.28 431.3,276.64 439.7,298.44 443.74,319.14 446.04,321.29 448.44,320.87 450.82,320.66 453.22,320.6 455.61,320.62 458.0,320.61 460.4,320.61 462.79,320.59 465.19,320.59 467.58,320.59 469.97,320.59 472.36,320.58 474.76,320.57 477.15,320.58 479.54,320.57 481.93,320.56 484.33,320.55 486.73,320.71 489.18,321.88 491.89,328.52 495.3,349.19 499.6,361.78 504.46,364.66 509.5,365.14 514.57,365.21 519.65,365.23 524.73,365.23 529.8,365.23 534.88,365.23 539.96,365.23 545.04,365.23 550.12,365.23 555.2,365.23 560.27,365.23 565.35,365.23 570.43,365.23 575.51,365.23" fill="none" stroke="#2ca02c" stroke-width="1.6"/>
<rect x="535" y="94" width="12" height="3" fill="#2ca02c"/>
<text x="555" y="104" font-family="sans-serif" font-size="12">arepo (85 pts, L1ρ=0.0063)</text>
</svg>
